<?xml version="1.0" encoding="UTF-8" standalone="no"?>
<!-- Created with Inkscape (http://www.inkscape.org/) -->

<svg
   xmlns:dc="http://purl.org/dc/elements/1.1/"
   xmlns:cc="http://creativecommons.org/ns#"
   xmlns:rdf="http://www.w3.org/1999/02/22-rdf-syntax-ns#"
   xmlns:svg="http://www.w3.org/2000/svg"
   xmlns="http://www.w3.org/2000/svg"
   xmlns:sodipodi="http://sodipodi.sourceforge.net/DTD/sodipodi-0.dtd"
   xmlns:inkscape="http://www.inkscape.org/namespaces/inkscape"
   width="170"
   height="200"
   id="svg2"
   version="1.1"
   inkscape:version="0.48.2 r9819"
   sodipodi:docname="logo.svg"
   inkscape:export-filename="/home/thk01/Desarrollo/proyectos/examples/menes.mobile/www/img/logo.png"
   inkscape:export-xdpi="90"
   inkscape:export-ydpi="90">
  <defs
     id="defs4">
    <style
       id="style2989"
       type="text/css" />
  </defs>
  <sodipodi:namedview
     id="base"
     pagecolor="#ffffff"
     bordercolor="#666666"
     borderopacity="1.0"
     inkscape:pageopacity="0"
     inkscape:pageshadow="2"
     inkscape:zoom="1.4142136"
     inkscape:cx="78.718994"
     inkscape:cy="274.28705"
     inkscape:document-units="px"
     inkscape:current-layer="layer1"
     showgrid="false"
     inkscape:window-width="1680"
     inkscape:window-height="1026"
     inkscape:window-x="0"
     inkscape:window-y="24"
     inkscape:window-maximized="1" />
  <metadata
     id="metadata7">
    <rdf:RDF>
      <cc:Work
         rdf:about="">
        <dc:format>image/svg+xml</dc:format>
        <dc:type
           rdf:resource="http://purl.org/dc/dcmitype/StillImage" />
        <dc:title></dc:title>
      </cc:Work>
    </rdf:RDF>
  </metadata>
  <g
     inkscape:label="Capa 1"
     inkscape:groupmode="layer"
     id="layer1"
     transform="translate(0,-852.36218)">
    <g
       id="layer1-1"
       transform="matrix(1.1,0,0,1.1,-82.828625,751.32548)">
      <g
         id="1"
         transform="matrix(0.08667657,0,0,0.09775769,73.083291,96.728611)">
        <path
           inkscape:connector-curvature="0"
           style="fill:#fefefe;fill-opacity:1;fill-rule:evenodd;stroke:none"
           id="2"
           d="m 51.780877,1396.1724 1730.571423,0 0,-1350.277459 -1730.571423,0 z" />
        <path
           inkscape:connector-curvature="0"
           style="fill:#ffffff;fill-opacity:1;fill-rule:evenodd;stroke:none"
           id="3"
           d="m 151.25467,1396.1724 1523.44793,0 0,-1350.277459 -340.6637,0 c 13.6266,8.454331 23.1651,8.454331 34.0664,19.324185 8.1759,7.24657 14.9892,16.908663 17.7145,28.986279 9.5386,32.609565 -8.1759,50.725985 -23.1651,68.842415 -85.8473,109.9063 -177.1451,221.02037 -262.9924,332.13444 L 1050.6067,481.89688 942.95702,340.58877 c -13.62654,-16.90866 -17.71451,-16.90866 -19.07716,-44.68718 -2.72531,-42.27165 2.72531,-72.46569 -27.25309,-94.2054 -10.90124,-7.24657 -110.37503,-56.7648 -128.08954,-65.21913 -36.79168,-19.32418 -70.85804,-13.28538 -83.12194,22.94747 -5.45062,14.49314 -10.90123,31.4018 -14.9892,47.1027 -9.53858,26.57076 -5.45062,21.73971 -27.25309,35.02509 -13.62655,9.66209 -66.77008,45.89494 -76.30866,49.51823 L 472.84117,172.70991 c -19.07717,-22.94747 -36.79168,-41.0639 -31.34106,-73.673459 6.81327,-37.440609 38.15433,-44.687179 53.14353,-53.14151 l -343.38897,0 z" />
        <path
           inkscape:connector-curvature="0"
           style="fill:#3f3f3f;fill-opacity:1;fill-rule:evenodd;stroke:none"
           id="4"
           d="m 155.34263,611.12737 1.36266,56.7648 c 70.85804,-2.41553 102.1991,-18.11643 153.97997,-53.14152 32.70371,-21.7397 57.2315,-57.97255 113.10034,-90.58212 54.50619,-31.4018 77.67131,-37.4406 136.26546,-45.89494 9.53859,-1.20776 12.2639,-4.83104 17.71452,-8.45433 61.31945,-42.27165 94.02317,-31.4018 133.54015,-49.51822 l 17.71451,-8.45433 c 14.9892,28.98627 -14.9892,62.8036 -13.62654,88.16659 0,15.7009 12.26389,26.57076 21.80247,36.23285 l 53.14353,60.38808 c 9.53858,10.86986 17.71451,20.53195 20.43982,38.64837 8.17593,47.1027 28.61575,74.88122 49.05557,119.5684 6.81327,15.7009 1.36265,18.11642 -14.9892,38.64837 -39.51699,53.14151 -24.52779,24.15523 -51.78088,37.44061 -20.43982,8.45433 -12.26389,26.57076 -27.25309,28.98628 -9.53858,1.20776 -61.31946,-14.49314 -72.2207,-18.11642 -117.1883,-30.19404 -188.04634,-2.41553 -242.55253,92.99764 -28.61575,48.31046 -55.86884,97.82872 -85.84724,144.93142 -27.25309,45.8949 -65.40743,91.7899 -125.36423,108.6985 -92.66052,25.363 -57.2315,55.557 -57.2315,155.8013 l -2.72531,36.2328 152.61733,-1.2078 c 4.08796,-1.2077 179.87041,-224.6436 192.1343,-239.1367 35.42902,-43.4795 84.48459,-108.6986 117.1883,-146.1392 10.90124,-12.07762 32.70372,-26.57076 58.59415,-30.19404 31.34106,-3.62329 50.41823,8.45433 70.85805,19.32418 57.23149,31.40176 114.46299,65.21916 170.33183,95.41316 21.80247,12.0776 17.71451,9.6621 34.06637,53.1415 14.9892,39.8562 32.70366,82.1278 49.05556,121.9839 l 20.4398,-10.8698 14.9892,55.557 125.3643,-167.8788 c 25.8904,-33.8174 36.7916,-48.3105 46.3302,-97.8287 5.4506,-19.3242 9.5386,-38.6484 13.6266,-57.97259 4.0879,-18.11642 1.3626,-12.07761 13.6265,-22.94747 6.8133,-7.24657 12.2639,-9.66209 16.3519,-20.53195 21.8024,-43.47941 -73.5834,-163.04781 -94.0232,-189.61857 -10.9012,-14.49314 -21.8025,-27.77851 -32.7037,-41.06389 -12.2639,-13.28538 -23.1652,-25.363 -35.429,-38.64837 l -38.1544,-109.90631 1.3627,-18.11642 -44.9676,-19.32419 c -29.9784,-39.85613 -59.95683,-78.5045 -89.93523,-117.15287 -8.17593,-10.86986 -14.9892,-18.11643 -21.80248,-28.98628 -8.17592,-9.66209 -16.35185,-19.32419 -23.16512,-28.98628 -13.62655,-20.53195 -10.90124,-61.59584 -13.62655,-88.1666 -1.36266,-20.53194 -5.45062,-21.73971 -20.43982,-30.19404 L 754.91068,166.6711 c -34.06637,-16.90866 -28.61575,-13.28538 -46.33026,42.27166 -13.62654,41.06389 -10.90123,38.64837 -43.60495,60.38808 -20.43982,14.49314 -43.60495,28.98628 -64.04477,42.27165 L 344.75163,479.48136 c -57.2315,36.23284 -122.63892,80.92002 -177.14511,115.94511 -8.17592,4.83105 -12.26389,3.62328 -12.26389,15.7009 z" />
        <path
           inkscape:connector-curvature="0"
           style="fill:#56c5bf;fill-opacity:1;fill-rule:evenodd;stroke:none"
           id="5"
           d="m 1114.6515,585.76438 c 1.3627,33.81732 31.3411,59.18031 58.5942,89.37435 23.1651,26.57076 46.3302,55.55704 66.77,84.54332 25.8905,36.23285 95.3859,132.85377 72.2207,179.95648 l -14.9892,24.15523 264.355,164.25554 c 42.2423,21.7397 87.2099,2.4156 102.1991,-24.1552 14.9892,-24.1552 8.176,-92.9976 8.176,-125.6072 l 0,-531.41511 c 0,-36.23285 8.1759,-96.62093 -12.2639,-121.98392 -20.4398,-25.36299 -64.0448,-39.85613 -104.9244,-15.7009 -29.9784,19.32419 -58.5942,37.44061 -87.2099,55.55703 -59.9568,36.23285 -117.1883,73.67346 -175.7825,109.90631 -5.4506,2.41552 -170.3318,105.07526 -177.1451,111.11407 z" />
        <path
           inkscape:connector-curvature="0"
           style="fill:#56c5bf;fill-opacity:1;fill-rule:evenodd;stroke:none"
           id="6"
           d="m 1334.0389,45.894941 -839.39526,0 c -14.9892,8.454331 -46.33026,15.700901 -53.14353,53.14151 -5.45062,32.609559 12.26389,50.725989 31.34106,73.673459 l 94.02317,118.36064 c 9.53858,-3.62329 62.68211,-39.85614 76.30866,-49.51823 21.80247,-13.28538 17.71451,-8.45433 27.25309,-35.02509 4.08797,-15.7009 9.53858,-32.60956 14.9892,-47.1027 12.2639,-36.23285 46.33026,-42.27165 83.12194,-22.94747 17.71451,8.45433 117.1883,57.97256 128.08954,65.21913 29.9784,21.73971 24.52778,51.93375 27.25309,94.2054 1.36265,27.77852 5.45062,27.77852 19.07716,44.68718 l 107.64968,141.30811 49.0556,13.28538 c 85.8473,-111.11407 177.1451,-222.22814 262.9924,-332.13444 14.9892,-18.11643 32.7037,-36.23285 23.1651,-68.842415 -2.7253,-12.077616 -9.5386,-21.739709 -17.7145,-28.986279 -10.9013,-10.869854 -20.4398,-10.869854 -34.0664,-19.324185 z" />
        <path
           inkscape:connector-curvature="0"
           style="fill:#56c5bf;fill-opacity:1;fill-rule:evenodd;stroke:none"
           id="7"
           d="m 1238.6531,1117.1795 c -32.7037,45.8949 -66.7701,89.3743 -100.8365,135.2693 -8.1759,12.0776 -43.6049,59.1803 -51.7808,67.6346 -9.5386,9.6621 -28.6158,16.9087 -46.3303,7.2466 l -21.8025,-38.6484 c -10.9012,-10.8698 -17.7145,10.8699 -36.79165,-42.2716 -6.81327,-16.9087 -49.05556,-132.8538 -57.23149,-140.1004 L 738.55883,1004.8577 c -51.78088,-24.15528 -77.67132,20.5319 -100.83645,50.7259 -12.26389,15.7009 -24.52778,30.1941 -35.42902,44.6872 l -143.07874,179.9565 c -31.34106,38.6484 -21.80247,80.92 19.07717,101.452 25.89043,13.2853 124.00157,7.2465 160.79324,7.2465 66.77008,0 669.06347,2.4156 688.14057,0 42.2423,-6.0388 77.6714,-47.1027 54.5062,-91.7898 -6.8132,-14.4932 -137.6281,-176.3332 -143.0787,-179.9565 z" />
        <path
           inkscape:connector-curvature="0"
           style="fill:#56c5bf;fill-opacity:1;fill-rule:evenodd;stroke:none"
           id="8"
           d="m 156.70529,560.40138 c 5.45061,-2.41552 24.52778,-14.49314 31.34105,-19.32418 61.31946,-42.27166 140.35343,-94.20541 204.3982,-134.06154 l 12.26389,-8.45433 c 1.36266,-1.20776 1.36266,-1.20776 1.36266,-1.20776 l 2.72531,-2.41553 c -9.53858,-8.45433 -35.42902,-22.94747 -47.69292,-30.19404 -20.43982,-12.07761 -83.12193,-53.14151 -96.74848,-60.38808 -39.51698,-16.90866 -91.29786,-2.41552 -104.9244,37.44061 -6.81328,18.11643 -5.45062,200.48843 -2.72531,218.60485 z" />
      </g>
    </g>
    <rect
       style="fill:#ffffff;fill-opacity:1"
       id="rect3077"
       width="165"
       height="15.318182"
       x="2.5"
       y="1007.044" />
    <rect
       y="1021.0439"
       x="2.5"
       height="15.318182"
       width="165"
       id="rect3079"
       style="fill:#cccccc;fill-opacity:1" />
  </g>
</svg>
