<?xml version="1.0" encoding="UTF-8" standalone="no"?>
<!-- Generator: Adobe Illustrator 16.0.4, SVG Export Plug-In . SVG Version: 6.00 Build 0)  -->

<svg
   xmlns:dc="http://purl.org/dc/elements/1.1/"
   xmlns:cc="http://creativecommons.org/ns#"
   xmlns:rdf="http://www.w3.org/1999/02/22-rdf-syntax-ns#"
   xmlns:svg="http://www.w3.org/2000/svg"
   xmlns="http://www.w3.org/2000/svg"
   xmlns:sodipodi="http://sodipodi.sourceforge.net/DTD/sodipodi-0.dtd"
   xmlns:inkscape="http://www.inkscape.org/namespaces/inkscape"
   version="1.1"
   id="Capa_1"
   x="0px"
   y="0px"
   width="80"
   height="82.126442"
   viewBox="0 0 80 82.126445"
   enable-background="new 0 0 21 21.557"
   xml:space="preserve"
   inkscape:version="0.48.2 r9819"
   sodipodi:docname="bug.svg"
   inkscape:export-filename="/home/thk01/git/menes.mobile/www/img/bug.png"
   inkscape:export-xdpi="90"
   inkscape:export-ydpi="90"><metadata
   id="metadata3118"><rdf:RDF><cc:Work
       rdf:about=""><dc:format>image/svg+xml</dc:format><dc:type
         rdf:resource="http://purl.org/dc/dcmitype/StillImage" /><dc:title></dc:title></cc:Work></rdf:RDF></metadata><defs
   id="defs3116" /><sodipodi:namedview
   pagecolor="#ffffff"
   bordercolor="#666666"
   borderopacity="1"
   objecttolerance="10"
   gridtolerance="10"
   guidetolerance="10"
   inkscape:pageopacity="0"
   inkscape:pageshadow="2"
   inkscape:window-width="1680"
   inkscape:window-height="1026"
   id="namedview3114"
   showgrid="false"
   fit-margin-top="0"
   fit-margin-left="0"
   fit-margin-right="0"
   fit-margin-bottom="0"
   inkscape:zoom="1"
   inkscape:cx="-106.00018"
   inkscape:cy="10.778271"
   inkscape:window-x="0"
   inkscape:window-y="24"
   inkscape:window-maximized="1"
   inkscape:current-layer="Capa_1" />

<g
   id="g3139"
   transform="matrix(0.75,0,0,0.75,9.9999993,10.265804)"><path
     inkscape:connector-curvature="0"
     style="fill:#333333"
     id="path3110"
     d="m 13.370753,4.0778139 c 0.510476,0.09143 12.384758,2.487618 14.933329,15.8704721 -3.230475,3.413332 -5.234284,8.198093 -5.234284,13.512378 0,0.04952 0.0038,0.09524 0.0038,0.140952 h 33.851421 c 0,-0.04571 0.0076,-0.09143 0.0076,-0.140952 0,-5.318094 -2.011428,-10.099046 -5.245713,-13.516188 2.55238,-13.3828541 14.434282,-15.7790431 14.948568,-15.8704721 1.104761,-0.205714 1.843809,-1.268571 1.645713,-2.388571 -0.213333,-1.11619 -1.268571,-1.847618 -2.380951,-1.653333 -0.148572,0.02667 -13.828568,2.674285 -17.752377,17.0285681 -2.422857,-1.470476 -5.19238,-2.300952 -8.148569,-2.300952 -2.944762,0 -5.721904,0.838095 -8.14476,2.300952 C 27.930721,2.7063849 14.250724,0.0587669 14.105962,0.0320999 c -1.11619,-0.198095 -2.171428,0.540952 -2.384761,1.657143 -0.205714,1.119999 0.537143,2.186666 1.649524,2.388571 z" /><path
     inkscape:connector-curvature="0"
     style="fill:#333333"
     id="path3112"
     d="m 79.877403,23.971142 c 0.445714,-1.447619 -0.361905,-2.979047 -1.805714,-3.428571 -1.451428,-0.441904 -2.975237,0.361905 -3.420951,1.813333 0,0 -3.348571,10.796188 -4.060952,13.108569 -1.459047,0.4 -5.885713,1.649523 -8.952378,2.491428 -0.110477,-0.487619 -0.205715,-0.979048 -0.312381,-1.455238 h -42.6438 c -0.121904,0.47619 -0.213333,0.967619 -0.31619,1.455238 C 15.294562,37.110187 10.860277,35.864473 9.4088488,35.464473 8.6926585,33.144473 5.3478974,22.348285 5.3478974,22.348285 4.9059928,20.900667 3.363136,20.096857 1.9231364,20.538762 0.4755177,20.988286 -0.32448211,22.523523 0.12504159,23.967333 l 4.94095111,15.9619 12.5066633,3.474285 c -0.09524,1.169524 -0.15619,2.327619 -0.15619,3.523809 0,1.466666 0.08,2.906666 0.213333,4.319999 L 5.1421832,56.835896 1.2450413,78.908272 c -0.26666658,1.489523 0.7199998,2.906666 2.2133328,3.177142 1.4895234,0.259047 2.9104755,-0.735238 3.169523,-2.224762 0,0 2.9599993,-16.739043 3.4019039,-19.211424 1.19619,-0.544761 5.158094,-2.304761 8.521903,-3.813332 2.967618,12.620949 11.443806,21.748566 21.447614,21.748566 10.007616,0 18.491424,-9.127617 21.455232,-21.748566 3.36,1.508571 7.325713,3.268571 8.521903,3.813332 0.430476,2.472381 3.401904,19.211424 3.401904,19.211424 0.255238,1.489524 1.683809,2.483809 3.177142,2.224762 1.489524,-0.270476 2.47619,-1.687619 2.205714,-3.177142 L 74.860262,56.835896 62.376455,51.251135 c 0.133333,-1.413332 0.217143,-2.853332 0.217143,-4.319998 0,-1.188572 -0.06857,-2.354286 -0.156191,-3.523809 l 12.506664,-3.474285 4.933332,-15.961901 z" /></g>
</svg>