<?xml version="1.0" encoding="UTF-8" standalone="no"?>
<!-- Generator: Adobe Illustrator 16.0.4, SVG Export Plug-In . SVG Version: 6.00 Build 0)  -->

<svg
   xmlns:dc="http://purl.org/dc/elements/1.1/"
   xmlns:cc="http://creativecommons.org/ns#"
   xmlns:rdf="http://www.w3.org/1999/02/22-rdf-syntax-ns#"
   xmlns:svg="http://www.w3.org/2000/svg"
   xmlns="http://www.w3.org/2000/svg"
   xmlns:sodipodi="http://sodipodi.sourceforge.net/DTD/sodipodi-0.dtd"
   xmlns:inkscape="http://www.inkscape.org/namespaces/inkscape"
   version="1.1"
   id="Capa_1"
   x="0px"
   y="0px"
   width="80"
   height="73.923698"
   viewBox="0 0 80 73.923698"
   enable-background="new 0 0 64 64"
   xml:space="preserve"
   inkscape:version="0.48.2 r9819"
   sodipodi:docname="pill.svg"
   inkscape:export-filename="/home/thk01/git/menes.mobile/www/img/icons/pill.png"
   inkscape:export-xdpi="90"
   inkscape:export-ydpi="90"><metadata
   id="metadata3039"><rdf:RDF><cc:Work
       rdf:about=""><dc:format>image/svg+xml</dc:format><dc:type
         rdf:resource="http://purl.org/dc/dcmitype/StillImage" /><dc:title></dc:title></cc:Work></rdf:RDF></metadata><defs
   id="defs3037" /><sodipodi:namedview
   pagecolor="#ffffff"
   bordercolor="#666666"
   borderopacity="1"
   objecttolerance="10"
   gridtolerance="10"
   guidetolerance="10"
   inkscape:pageopacity="0"
   inkscape:pageshadow="2"
   inkscape:window-width="1680"
   inkscape:window-height="1026"
   id="namedview3035"
   showgrid="false"
   fit-margin-top="0"
   fit-margin-left="0"
   fit-margin-right="0"
   fit-margin-bottom="0"
   inkscape:zoom="1"
   inkscape:cx="-89.340624"
   inkscape:cy="23.400882"
   inkscape:window-x="0"
   inkscape:window-y="24"
   inkscape:window-maximized="1"
   inkscape:current-layer="Capa_1" />

<g
   id="g3357"
   transform="matrix(0.74102423,0.15032852,-0.15032852,0.74102423,20.861387,8.7771457)"
   style="fill:#333333">
	<path
   id="path3359"
   d="m 23.924,42.315 0.57,-2.909 C 25.598,33.762 28.487,26.079 35.976,21.518 L 38.861,19.763 21.13,8.917 C 19.008,7.616 16.572,6.929 14.089,6.929 9.338,6.929 5.023,9.346 2.547,13.392 -1.341,19.75 0.668,28.086 7.025,31.976 L 23.924,42.315 z M 6.065,15.544 c 1.719,-2.813 4.721,-4.493 8.024,-4.493 1.722,0 3.413,0.478 4.892,1.38 l 12.166,7.444 C 25.292,24.542 22.474,30.908 21.122,35.766 L 9.174,28.46 C 4.756,25.756 3.361,19.962 6.065,15.544 z"
   inkscape:connector-curvature="0"
   style="fill:#333333" />
	<path
   id="path3361"
   d="m 57.8,31.989 -15.851,-9.697 -0.293,0.125 c -1.848,0.791 -3.437,1.777 -4.839,2.874 l 15.265,9.319 c 0.577,0.354 0.761,1.108 0.406,1.687 -0.23,0.379 -0.634,0.587 -1.046,0.587 -0.218,0 -0.438,-0.057 -0.64,-0.179 0,0 -15.657,-9.668 -15.757,-9.876 -5.598,5.465 -7.162,12.916 -7.589,16.482 l -0.048,0.393 16.903,10.337 c 2.031,1.244 4.359,1.899 6.731,1.899 4.544,0 8.668,-2.311 11.036,-6.181 3.72,-6.079 1.799,-14.05 -4.278,-17.77 z"
   inkscape:connector-curvature="0"
   style="fill:#333333" />
</g></svg>