<?xml version="1.0" encoding="UTF-8" standalone="no"?>
<!-- Generator: Adobe Illustrator 16.0.4, SVG Export Plug-In . SVG Version: 6.00 Build 0)  -->

<svg
   xmlns:dc="http://purl.org/dc/elements/1.1/"
   xmlns:cc="http://creativecommons.org/ns#"
   xmlns:rdf="http://www.w3.org/1999/02/22-rdf-syntax-ns#"
   xmlns:svg="http://www.w3.org/2000/svg"
   xmlns="http://www.w3.org/2000/svg"
   xmlns:sodipodi="http://sodipodi.sourceforge.net/DTD/sodipodi-0.dtd"
   xmlns:inkscape="http://www.inkscape.org/namespaces/inkscape"
   version="1.1"
   id="Capa_1"
   x="0px"
   y="0px"
   width="80"
   height="73.923698"
   viewBox="0 0 80 73.923698"
   enable-background="new 0 0 64 64"
   xml:space="preserve"
   inkscape:version="0.48.2 r9819"
   sodipodi:docname="syringe.svg"
   inkscape:export-filename="/home/thk01/git/menes.mobile/www/img/icons/syringe.png"
   inkscape:export-xdpi="90"
   inkscape:export-ydpi="90"><metadata
   id="metadata3039"><rdf:RDF><cc:Work
       rdf:about=""><dc:format>image/svg+xml</dc:format><dc:type
         rdf:resource="http://purl.org/dc/dcmitype/StillImage" /><dc:title></dc:title></cc:Work></rdf:RDF></metadata><defs
   id="defs3037" /><sodipodi:namedview
   pagecolor="#ffffff"
   bordercolor="#666666"
   borderopacity="1"
   objecttolerance="10"
   gridtolerance="10"
   guidetolerance="10"
   inkscape:pageopacity="0"
   inkscape:pageshadow="2"
   inkscape:window-width="1680"
   inkscape:window-height="1026"
   id="namedview3035"
   showgrid="false"
   fit-margin-top="0"
   fit-margin-left="0"
   fit-margin-right="0"
   fit-margin-bottom="0"
   inkscape:zoom="1"
   inkscape:cx="-89.340624"
   inkscape:cy="23.400882"
   inkscape:window-x="0"
   inkscape:window-y="24"
   inkscape:window-maximized="1"
   inkscape:current-layer="Capa_1" />
<path
   d="M 69.731001,63.26293 56.203992,51.052234 c 0.588561,-0.797898 1.007238,-1.660462 1.190272,-2.496721 l 0.02411,-0.161113 c 0.427445,-5.215933 0.06466,-5.543641 -0.357301,-5.921766 L 28.548263,16.727257 c -0.832971,-0.754058 -2.124076,-0.687201 -2.878133,0.146866 l -1.059846,1.172736 -2.646875,-2.389312 0.514031,-0.571023 c 1.740471,-1.927889 2.099963,-4.147318 0.849411,-5.2751171 -1.249457,-1.126703 -3.419566,-0.544719 -5.160036,1.3831701 l -6.576086,7.279727 c -1.7404706,1.927889 -2.0966753,4.146223 -0.850507,5.274021 1.251648,1.127799 3.421757,0.546911 5.162228,-1.380978 l 0.51403,-0.568832 2.646875,2.390408 -1.060942,1.173832 c -0.751866,0.834066 -0.686105,2.124075 0.146866,2.877037 l 28.515005,25.748664 c 1.246168,1.122319 6.037943,-0.271811 6.086168,-0.289347 0.813242,-0.269619 1.629773,-0.77269 2.36191,-1.437971 l 13.525913,12.212888 c 0.334284,0.300308 0.849411,0.2751 1.151911,-0.06137 0.300308,-0.328804 0.276196,-0.845027 -0.05918,-1.149719 z M 55.190179,48.191637 c -0.315652,1.277952 -1.976113,2.780589 -3.206938,3.185018 -1.296585,0.430733 -3.218994,0.644456 -3.895234,0.606095 l -27.995495,-25.282859 1.05875,-1.171638 c 0.751866,-0.834067 0.687201,-2.126268 -0.146866,-2.880327 l -4.76547,-4.301856 -2.153668,2.384928 c -0.669665,0.740905 -1.299873,1.035733 -1.626485,1.117935 0.04713,-0.334285 0.277291,-0.990798 0.946956,-1.7328 l 6.576085,-7.281919 c 0.668569,-0.743098 1.298778,-1.037925 1.626486,-1.117934 -0.04603,0.332092 -0.276195,0.989701 -0.946956,1.732798 l -2.152572,2.382736 4.76547,4.304048 c 0.835163,0.75077 2.126268,0.686105 2.878134,-0.147962 l 1.060942,-1.173831 4.054156,3.660688 c -0.03836,0.0296 -0.07782,0.04713 -0.110697,0.08549 l -4.433378,4.909049 c -0.301404,0.332092 -0.275099,0.847219 0.05918,1.149719 0.333189,0.301404 0.849411,0.275099 1.151912,-0.05809 l 4.432282,-4.910145 c 0.03178,-0.03727 0.04493,-0.08001 0.07015,-0.120561 l 1.153007,1.040117 c -0.03836,0.02849 -0.08001,0.04603 -0.113985,0.0811 l -3.339556,3.700144 c -0.302501,0.334285 -0.277292,0.850508 0.05699,1.151912 0.335381,0.3025 0.850508,0.274003 1.154103,-0.05918 l 3.33846,-3.700144 c 0.03397,-0.03617 0.04822,-0.07672 0.07124,-0.11837 l 1.151911,1.040118 c -0.03617,0.0274 -0.07891,0.04494 -0.110697,0.0811 l -4.434474,4.910144 c -0.300309,0.333189 -0.2751,0.848315 0.05918,1.149719 0.333188,0.303597 0.850507,0.277292 1.151911,-0.05809 l 4.432282,-4.907952 c 0.03398,-0.03836 0.04713,-0.08111 0.07124,-0.121658 l 1.153007,1.039022 c -0.03836,0.0296 -0.07891,0.04713 -0.113985,0.0822 l -1.385363,1.534418 c -0.07343,0.0559 -0.15125,0.104122 -0.217011,0.176459 l -3.578487,3.934691 c -0.437309,0.482247 -0.509647,1.131087 -0.155634,1.452219 l 13.041475,12.06931 0.01206,0.0088 0.564447,0.515127 c 0.01973,0.01863 0.04932,0.02082 0.07015,0.03507 l 2.506585,2.169012 c 0,0 2.078043,-0.150154 3.55547,-1.578261 1.763487,-1.710878 1.498252,-3.979628 1.498252,-3.979628 L 51.57662,42.871587 c -0.0066,-0.0055 -0.0088,-0.01534 -0.01315,-0.01973 L 51.003405,42.342208 38.537337,30.806657 39.325372,29.93423 c 0.03288,-0.03727 0.04713,-0.07782 0.07124,-0.119466 l 15.749724,14.221882 c 0.489918,1.516884 0.520607,2.240254 0.04384,4.154991 z m -5.70037,0.111793 c 0.221394,0.206051 0.233451,0.553487 0.0274,0.774883 -0.109601,0.113985 -0.254275,0.174266 -0.402237,0.174266 -0.132618,0 -0.266332,-0.04932 -0.372645,-0.147962 L 36.117338,37.365207 c -0.221395,-0.20605 -0.233451,-0.553487 -0.0274,-0.774882 0.207147,-0.220299 0.553488,-0.233451 0.774882,-0.0274 L 49.48981,48.30343 z"
   id="path3033"
   inkscape:connector-curvature="0"
   style="fill:#333333" />
</svg>